<svg width="16" height="13" viewBox="0 0 16 13" fill="none" xmlns="http://www.w3.org/2000/svg">
<g id="Group">
<path id="Vector" d="M9.33716 8.30304C8.93909 8.56841 8.47672 8.7087 8 8.7087C7.52331 8.7087 7.06094 8.56841 6.66287 8.30304L0.106531 3.93201C0.0701562 3.90776 0.0347187 3.88248 0 3.85648V11.0189C0 11.8401 0.666406 12.4918 1.47291 12.4918H14.5271C15.3482 12.4918 16 11.8254 16 11.0189V3.85645C15.9652 3.88251 15.9297 3.90785 15.8932 3.93213L9.33716 8.30304Z" fill="#717A93"/>
<path id="Vector_2" d="M0.626562 3.1518L7.18291 7.52286C7.43109 7.68833 7.71553 7.77105 7.99997 7.77105C8.28444 7.77105 8.56891 7.6883 8.81709 7.52286L15.3734 3.1518C15.7658 2.89039 16 2.45289 16 1.98071C16 1.1688 15.3395 0.508301 14.5276 0.508301H1.47241C0.660531 0.508332 0 1.16883 0 1.98149C0 2.45289 0.23425 2.89039 0.626562 3.1518Z" fill="#717A93"/>
</g>
</svg>
